<?xml version="1.0" standalone="no"?>
<!DOCTYPE svg PUBLIC "-//W3C//DTD SVG 20010904//EN"
 "http://www.w3.org/TR/2001/REC-SVG-20010904/DTD/svg10.dtd">
<svg version="1.0" xmlns="http://www.w3.org/2000/svg"
 width="512.000000pt" height="512.000000pt" viewBox="0 0 512.000000 512.000000"
 preserveAspectRatio="xMidYMid meet">
<metadata>
Created by potrace 1.14, written by Peter Selinger 2001-2017
</metadata>
<g transform="translate(0.000000,512.000000) scale(0.100000,-0.100000)"
fill="#000000" stroke="none">
<path d="M1595 4793 c-60 -32 -63 -38 -160 -333 -43 -129 -80 -238 -84 -242
-3 -4 -221 -8 -484 -8 -399 -1 -487 -4 -530 -17 -161 -48 -276 -161 -319 -316
-23 -81 -27 -1017 -4 -1070 17 -41 50 -75 93 -93 17 -8 34 -18 37 -23 3 -5 6
-456 7 -1002 0 -972 1 -995 21 -1059 45 -144 153 -253 298 -298 65 -21 76 -21
2086 -21 1828 -1 2026 1 2075 15 139 42 236 124 297 251 l37 78 3 1014 c2 710
6 1019 14 1028 6 7 15 13 21 13 6 0 28 12 48 26 70 48 69 46 68 592 -1 524 -2
540 -55 644 -32 62 -114 147 -175 179 -106 56 -120 58 -637 59 -262 0 -479 4
-483 8 -3 4 -45 122 -92 263 -88 263 -101 289 -160 316 -21 10 -239 13 -960
12 -835 0 -935 -2 -962 -16z m1802 -418 c24 -71 46 -138 49 -147 5 -17 -42
-18 -885 -18 -490 0 -891 1 -891 3 0 3 86 261 95 285 3 10 168 12 796 10 l792
-3 44 -130z m1340 -486 c30 -14 50 -33 63 -60 19 -36 20 -60 20 -457 l0 -419
-427 -213 c-236 -117 -587 -291 -781 -388 l-353 -175 -17 23 c-18 26 -110 119
-133 135 -8 6 -32 18 -54 29 -90 42 -125 45 -495 45 -378 0 -409 -3 -507 -50
-46 -23 -156 -124 -179 -164 -11 -19 -40 -6 -520 234 -280 139 -632 315 -781
389 l-273 135 0 407 c0 224 3 422 6 440 8 36 65 97 97 103 12 2 982 5 2156 6
l2135 1 43 -21z m-3715 -1630 c310 -154 616 -306 680 -337 94 -45 119 -62 124
-82 27 -102 121 -220 215 -269 107 -58 129 -60 519 -60 377 0 405 2 504 49 87
41 206 179 220 254 9 44 22 53 199 140 100 49 406 201 680 338 274 136 500
248 503 248 2 0 4 -405 4 -900 0 -768 -2 -906 -15 -936 -17 -42 -31 -56 -72
-78 -29 -15 -202 -16 -2019 -16 -1986 0 -1988 0 -2030 21 -25 12 -51 35 -63
55 -20 34 -21 46 -21 944 0 501 2 910 4 910 3 0 258 -126 568 -281z m1910
-171 c43 -24 78 -80 78 -123 0 -30 -23 -90 -43 -109 -44 -44 -61 -46 -407 -46
-351 0 -366 2 -411 49 -25 27 -41 87 -34 129 7 44 29 73 76 101 33 20 48 21
368 21 327 0 334 0 373 -22z"/>
</g>
</svg>
